<mxfile host="app.diagrams.net" modified="2023-12-13T13:28:55.123Z" agent="Mozilla/5.0 (Macintosh; Intel Mac OS X 10_15_7) AppleWebKit/605.1.15 (KHTML, like Gecko) Version/15.2 Safari/605.1.15" etag="l28s-RZUCHvNBJq79Jki" version="22.1.8" type="device">
  <diagram name="Page 2" id="0">
    <mxGraphModel dx="2987" dy="2180" grid="0" gridSize="10" guides="1" tooltips="1" connect="1" arrows="1" fold="1" page="1" pageScale="1" pageWidth="827" pageHeight="1169" math="0" shadow="0">
      <root>
        <mxCell id="0" />
        <mxCell id="1" parent="0" />
        <mxCell id="_vYmIPRDSyXCgmwsRDD9-84" value="" style="whiteSpace=wrap;html=1;aspect=fixed;" vertex="1" parent="1">
          <mxGeometry x="-507" y="-743" width="1460" height="1460" as="geometry" />
        </mxCell>
        <mxCell id="2" style="graphMlID=n0;shape=rect;fillColor=#ffffff;strokeColor=#000000;strokeWidth=1.0" parent="1" vertex="1">
          <mxGeometry x="-290" y="-464.85" width="1112.32" height="940" as="geometry" />
        </mxCell>
        <mxCell id="_vYmIPRDSyXCgmwsRDD9-33" style="edgeStyle=orthogonalEdgeStyle;rounded=0;orthogonalLoop=1;jettySize=auto;html=1;exitX=0.5;exitY=0;exitDx=0;exitDy=0;entryX=0.5;entryY=0;entryDx=0;entryDy=0;endArrow=block;endFill=0;" edge="1" parent="1" source="4" target="5">
          <mxGeometry relative="1" as="geometry">
            <Array as="points">
              <mxPoint x="880" y="-520" />
              <mxPoint x="-383" y="-520" />
            </Array>
          </mxGeometry>
        </mxCell>
        <mxCell id="4" style="graphMlID=n2;shape=image;fillColor=#ffcc00;strokeColor=#000000;strokeWidth=1.0;image=data:image/svg+xml,PD94bWwgdmVyc2lvbj0iMS4wIiBlbmNvZGluZz0iVVRGLTgiIHN0YW5kYWxvbmU9Im5vIj8+CjwhLS0gQ3JlYXRlZCB3aXRoIElua3NjYXBlIChodHRwOi8vd3d3Lmlua3NjYXBlLm9yZy8pIC0tPgo8c3ZnCiAgIHhtbG5zOmRjPSJodHRwOi8vcHVybC5vcmcvZGMvZWxlbWVudHMvMS4xLyIKICAgeG1sbnM6Y2M9Imh0dHA6Ly93ZWIucmVzb3VyY2Uub3JnL2NjLyIKICAgeG1sbnM6cmRmPSJodHRwOi8vd3d3LnczLm9yZy8xOTk5LzAyLzIyLXJkZi1zeW50YXgtbnMjIgogICB4bWxuczpzdmc9Imh0dHA6Ly93d3cudzMub3JnLzIwMDAvc3ZnIgogICB4bWxucz0iaHR0cDovL3d3dy53My5vcmcvMjAwMC9zdmciCiAgIHhtbG5zOnNvZGlwb2RpPSJodHRwOi8vc29kaXBvZGkuc291cmNlZm9yZ2UubmV0L0RURC9zb2RpcG9kaS0wLmR0ZCIKICAgeG1sbnM6aW5rc2NhcGU9Imh0dHA6Ly93d3cuaW5rc2NhcGUub3JnL25hbWVzcGFjZXMvaW5rc2NhcGUiCiAgIHdpZHRoPSI0MSIKICAgaGVpZ2h0PSI2OC45OTczOTEiCiAgIGlkPSJzdmcyIgogICBzb2RpcG9kaTp2ZXJzaW9uPSIwLjMyIgogICBpbmtzY2FwZTp2ZXJzaW9uPSIwLjQ1LjEiCiAgIHNvZGlwb2RpOmRvY2Jhc2U9IkM6XERhdGVuXGFsYmVydHNccHJvamVjdHNceWZ4IgogICBzb2RpcG9kaTpkb2NuYW1lPSJ1bWxfYWN0b3Iuc3ZnIgogICBpbmtzY2FwZTpvdXRwdXRfZXh0ZW5zaW9uPSJvcmcuaW5rc2NhcGUub3V0cHV0LnN2Zy5pbmtzY2FwZSIKICAgdmVyc2lvbj0iMS4wIj4KICA8ZGVmcwogICAgIGlkPSJkZWZzNCIgLz4KICA8c29kaXBvZGk6bmFtZWR2aWV3CiAgICAgaWQ9ImJhc2UiCiAgICAgcGFnZWNvbG9yPSIjZmZmZmZmIgogICAgIGJvcmRlcmNvbG9yPSIjNjY2NjY2IgogICAgIGJvcmRlcm9wYWNpdHk9IjEuMCIKICAgICBpbmtzY2FwZTpwYWdlb3BhY2l0eT0iMC4wIgogICAgIGlua3NjYXBlOnBhZ2VzaGFkb3c9IjIiCiAgICAgaW5rc2NhcGU6em9vbT0iMi45MzQzNTEiCiAgICAgaW5rc2NhcGU6Y3g9IjE0NC4yMTk4MyIKICAgICBpbmtzY2FwZTpjeT0iMjguNTMzNzExIgogICAgIGlua3NjYXBlOmRvY3VtZW50LXVuaXRzPSJweCIKICAgICBpbmtzY2FwZTpjdXJyZW50LWxheWVyPSJsYXllcjEiCiAgICAgc2hvd2dyaWQ9InRydWUiCiAgICAgaW5rc2NhcGU6d2luZG93LXdpZHRoPSIxMjgwIgogICAgIGlua3NjYXBlOndpbmRvdy1oZWlnaHQ9Ijk2OCIKICAgICBpbmtzY2FwZTp3aW5kb3cteD0iLTQiCiAgICAgaW5rc2NhcGU6d2luZG93LXk9Ii00IgogICAgIHdpZHRoPSI0OHB4IgogICAgIGhlaWdodD0iNDhweCIKICAgICBzaG93Ym9yZGVyPSJmYWxzZSIKICAgICBpbmtzY2FwZTpzaG93cGFnZXNoYWRvdz0iZmFsc2UiIC8+CiAgPG1ldGFkYXRhCiAgICAgaWQ9Im1ldGFkYXRhNyI+CiAgICA8cmRmOlJERj4KICAgICAgPGNjOldvcmsKICAgICAgICAgcmRmOmFib3V0PSIiPgogICAgICAgIDxkYzpmb3JtYXQ+aW1hZ2Uvc3ZnK3htbDwvZGM6Zm9ybWF0PgogICAgICAgIDxkYzp0eXBlCiAgICAgICAgICAgcmRmOnJlc291cmNlPSJodHRwOi8vcHVybC5vcmcvZGMvZGNtaXR5cGUvU3RpbGxJbWFnZSIgLz4KICAgICAgPC9jYzpXb3JrPgogICAgPC9yZGY6UkRGPgogIDwvbWV0YWRhdGE+CiAgPGcKICAgICBpbmtzY2FwZTpsYWJlbD0iRWJlbmUgMSIKICAgICBpbmtzY2FwZTpncm91cG1vZGU9ImxheWVyIgogICAgIGlkPSJsYXllcjEiCiAgICAgdHJhbnNmb3JtPSJ0cmFuc2xhdGUoLTI5LjUsLTQyLjk1OTQ3NikiPgogICAgPGEKICAgICAgIGlkPSJhMzE0MiIKICAgICAgIHRyYW5zZm9ybT0ibWF0cml4KDEuMDg3MzkwNiwwLDAsMSwtNC40NzQxOTk5LDApIj4KICAgICAgPHBhdGgKICAgICAgICAgdHJhbnNmb3JtPSJ0cmFuc2xhdGUoMTEuNTg2ODg5LDUuMjkwODk5MykiCiAgICAgICAgIGQ9Ik0gNDcuMDI5MTQgNDcuMzY5OTMgQSA4LjUxOTc3MTYgOS4yMDEzNTMxIDAgMSAxICAyOS45ODk1OTcsNDcuMzY5OTMgQSA4LjUxOTc3MTYgOS4yMDEzNTMxIDAgMSAxICA0Ny4wMjkxNCA0Ny4zNjk5MyB6IgogICAgICAgICBzb2RpcG9kaTpyeT0iOS4yMDEzNTMxIgogICAgICAgICBzb2RpcG9kaTpyeD0iOC41MTk3NzE2IgogICAgICAgICBzb2RpcG9kaTpjeT0iNDcuMzY5OTMiCiAgICAgICAgIHNvZGlwb2RpOmN4PSIzOC41MDkzNjkiCiAgICAgICAgIGlkPSJwYXRoMjE2MCIKICAgICAgICAgc3R5bGU9ImZpbGw6bm9uZTtmaWxsLXJ1bGU6ZXZlbm9kZDtzdHJva2U6IzAwMDAwMDtzdHJva2Utd2lkdGg6MXB4O3N0cm9rZS1saW5lY2FwOmJ1dHQ7c3Ryb2tlLWxpbmVqb2luOm1pdGVyO3N0cm9rZS1vcGFjaXR5OjEiCiAgICAgICAgIHNvZGlwb2RpOnR5cGU9ImFyYyIgLz4KICAgIDwvYT4KICAgIDxwYXRoCiAgICAgICBzb2RpcG9kaTp0eXBlPSJhcmMiCiAgICAgICBzdHlsZT0iZmlsbDpub25lIgogICAgICAgaWQ9InBhdGgzMTM0IgogICAgICAgc29kaXBvZGk6Y3g9IjQzLjk2MjAyMSIKICAgICAgIHNvZGlwb2RpOmN5PSI0OC4zOTIzMDMiCiAgICAgICBzb2RpcG9kaTpyeD0iMy43NDg2OTk0IgogICAgICAgc29kaXBvZGk6cnk9IjAiCiAgICAgICBkPSJNIDQ3LjcxMDcyIDQ4LjM5MjMwMyBBIDMuNzQ4Njk5NCAwIDAgMSAxICA0MC4yMTMzMjEsNDguMzkyMzAzIEEgMy43NDg2OTk0IDAgMCAxIDEgIDQ3LjcxMDcyIDQ4LjM5MjMwMyB6IiAvPgogICAgPHBhdGgKICAgICAgIHN0eWxlPSJmaWxsOm5vbmU7ZmlsbC1ydWxlOmV2ZW5vZGQ7c3Ryb2tlOiMwMDAwMDA7c3Ryb2tlLXdpZHRoOjEuMjQzMTk2NDlweDtzdHJva2UtbGluZWNhcDpidXR0O3N0cm9rZS1saW5lam9pbjptaXRlcjtzdHJva2Utb3BhY2l0eToxIgogICAgICAgZD0iTSA1MCw2MS4zMzcwOSBDIDUwLDkxLjM2MzIxMSA1MCw5Mi4yNDc4MzggNTAsOTIuMjQ3ODM4IgogICAgICAgaWQ9InBhdGgzMTM2IiAvPgogICAgPHBhdGgKICAgICAgIHN0eWxlPSJmaWxsOm5vbmU7ZmlsbC1ydWxlOmV2ZW5vZGQ7c3Ryb2tlOiMwMDAwMDA7c3Ryb2tlLXdpZHRoOjFweDtzdHJva2UtbGluZWNhcDpidXR0O3N0cm9rZS1saW5lam9pbjptaXRlcjtzdHJva2Utb3BhY2l0eToxIgogICAgICAgZD0iTSA2OS43NjA2NjgsNzIuMzYyMTgzIEMgNjkuNzYwNjY4LDcyLjM2MjE4MyA2OS43NjA2NjgsNzIuMzYyMTgzIDUwLjIzOTMzMiw3Mi4zNjIxODMgQyAzMC4yMzkzMzIsNzIuMzYyMTgzIDMwLjIzOTMzMiw3Mi4zNjIxODMgMzAuMjM5MzMyLDcyLjM2MjE4MyBMIDMwLjIzOTMzMiw3Mi4zNjIxODMiCiAgICAgICBpZD0icGF0aDMxMzgiIC8+CiAgICA8cGF0aAogICAgICAgc3R5bGU9ImZpbGw6bm9uZTtmaWxsLXJ1bGU6ZXZlbm9kZDtzdHJva2U6IzAwMDAwMDtzdHJva2Utd2lkdGg6MXB4O3N0cm9rZS1saW5lY2FwOmJ1dHQ7c3Ryb2tlLWxpbmVqb2luOm1pdGVyO3N0cm9rZS1vcGFjaXR5OjEiCiAgICAgICBkPSJNIDMwLDExMS40NTY4NyBDIDMwLDExMS40NTY4NyAzMCwxMTEuNDU2ODcgNTAsOTIuMDEzNTMyIEMgNzAsMTExLjQ1Njg3IDcwLDExMS40NTY4NyA3MCwxMTEuNDU2ODciCiAgICAgICBpZD0icGF0aDMxNDAiIC8+CiAgPC9nPgo8L3N2Zz4K" parent="1" vertex="1">
          <mxGeometry x="849.9980208333334" y="-172.0030455381915" width="60" height="100" as="geometry" />
        </mxCell>
        <mxCell id="0.2.0" value="Администратор" style="text;html=1;spacing=0;align=center;fontFamily=dialog;fontSize=13;fontStyle=0;=center;fontColor=#000000;verticalAlign=bottom" parent="4" vertex="1">
          <mxGeometry x="9.575927734375" y="104" width="40.84814453125" height="19.92626953125" as="geometry" />
        </mxCell>
        <mxCell id="HmuV78mh6Rb3Nnddwdob-59" style="edgeStyle=orthogonalEdgeStyle;rounded=0;orthogonalLoop=1;jettySize=auto;html=1;endArrow=none;endFill=0;" parent="1" source="5" target="HmuV78mh6Rb3Nnddwdob-54" edge="1">
          <mxGeometry relative="1" as="geometry" />
        </mxCell>
        <mxCell id="5" style="graphMlID=n3;shape=image;fillColor=#ffcc00;strokeColor=#000000;strokeWidth=1.0;image=data:image/svg+xml,PD94bWwgdmVyc2lvbj0iMS4wIiBlbmNvZGluZz0iVVRGLTgiIHN0YW5kYWxvbmU9Im5vIj8+CjwhLS0gQ3JlYXRlZCB3aXRoIElua3NjYXBlIChodHRwOi8vd3d3Lmlua3NjYXBlLm9yZy8pIC0tPgo8c3ZnCiAgIHhtbG5zOmRjPSJodHRwOi8vcHVybC5vcmcvZGMvZWxlbWVudHMvMS4xLyIKICAgeG1sbnM6Y2M9Imh0dHA6Ly93ZWIucmVzb3VyY2Uub3JnL2NjLyIKICAgeG1sbnM6cmRmPSJodHRwOi8vd3d3LnczLm9yZy8xOTk5LzAyLzIyLXJkZi1zeW50YXgtbnMjIgogICB4bWxuczpzdmc9Imh0dHA6Ly93d3cudzMub3JnLzIwMDAvc3ZnIgogICB4bWxucz0iaHR0cDovL3d3dy53My5vcmcvMjAwMC9zdmciCiAgIHhtbG5zOnNvZGlwb2RpPSJodHRwOi8vc29kaXBvZGkuc291cmNlZm9yZ2UubmV0L0RURC9zb2RpcG9kaS0wLmR0ZCIKICAgeG1sbnM6aW5rc2NhcGU9Imh0dHA6Ly93d3cuaW5rc2NhcGUub3JnL25hbWVzcGFjZXMvaW5rc2NhcGUiCiAgIHdpZHRoPSI0MSIKICAgaGVpZ2h0PSI2OC45OTczOTEiCiAgIGlkPSJzdmcyIgogICBzb2RpcG9kaTp2ZXJzaW9uPSIwLjMyIgogICBpbmtzY2FwZTp2ZXJzaW9uPSIwLjQ1LjEiCiAgIHNvZGlwb2RpOmRvY2Jhc2U9IkM6XERhdGVuXGFsYmVydHNccHJvamVjdHNceWZ4IgogICBzb2RpcG9kaTpkb2NuYW1lPSJ1bWxfYWN0b3Iuc3ZnIgogICBpbmtzY2FwZTpvdXRwdXRfZXh0ZW5zaW9uPSJvcmcuaW5rc2NhcGUub3V0cHV0LnN2Zy5pbmtzY2FwZSIKICAgdmVyc2lvbj0iMS4wIj4KICA8ZGVmcwogICAgIGlkPSJkZWZzNCIgLz4KICA8c29kaXBvZGk6bmFtZWR2aWV3CiAgICAgaWQ9ImJhc2UiCiAgICAgcGFnZWNvbG9yPSIjZmZmZmZmIgogICAgIGJvcmRlcmNvbG9yPSIjNjY2NjY2IgogICAgIGJvcmRlcm9wYWNpdHk9IjEuMCIKICAgICBpbmtzY2FwZTpwYWdlb3BhY2l0eT0iMC4wIgogICAgIGlua3NjYXBlOnBhZ2VzaGFkb3c9IjIiCiAgICAgaW5rc2NhcGU6em9vbT0iMi45MzQzNTEiCiAgICAgaW5rc2NhcGU6Y3g9IjE0NC4yMTk4MyIKICAgICBpbmtzY2FwZTpjeT0iMjguNTMzNzExIgogICAgIGlua3NjYXBlOmRvY3VtZW50LXVuaXRzPSJweCIKICAgICBpbmtzY2FwZTpjdXJyZW50LWxheWVyPSJsYXllcjEiCiAgICAgc2hvd2dyaWQ9InRydWUiCiAgICAgaW5rc2NhcGU6d2luZG93LXdpZHRoPSIxMjgwIgogICAgIGlua3NjYXBlOndpbmRvdy1oZWlnaHQ9Ijk2OCIKICAgICBpbmtzY2FwZTp3aW5kb3cteD0iLTQiCiAgICAgaW5rc2NhcGU6d2luZG93LXk9Ii00IgogICAgIHdpZHRoPSI0OHB4IgogICAgIGhlaWdodD0iNDhweCIKICAgICBzaG93Ym9yZGVyPSJmYWxzZSIKICAgICBpbmtzY2FwZTpzaG93cGFnZXNoYWRvdz0iZmFsc2UiIC8+CiAgPG1ldGFkYXRhCiAgICAgaWQ9Im1ldGFkYXRhNyI+CiAgICA8cmRmOlJERj4KICAgICAgPGNjOldvcmsKICAgICAgICAgcmRmOmFib3V0PSIiPgogICAgICAgIDxkYzpmb3JtYXQ+aW1hZ2Uvc3ZnK3htbDwvZGM6Zm9ybWF0PgogICAgICAgIDxkYzp0eXBlCiAgICAgICAgICAgcmRmOnJlc291cmNlPSJodHRwOi8vcHVybC5vcmcvZGMvZGNtaXR5cGUvU3RpbGxJbWFnZSIgLz4KICAgICAgPC9jYzpXb3JrPgogICAgPC9yZGY6UkRGPgogIDwvbWV0YWRhdGE+CiAgPGcKICAgICBpbmtzY2FwZTpsYWJlbD0iRWJlbmUgMSIKICAgICBpbmtzY2FwZTpncm91cG1vZGU9ImxheWVyIgogICAgIGlkPSJsYXllcjEiCiAgICAgdHJhbnNmb3JtPSJ0cmFuc2xhdGUoLTI5LjUsLTQyLjk1OTQ3NikiPgogICAgPGEKICAgICAgIGlkPSJhMzE0MiIKICAgICAgIHRyYW5zZm9ybT0ibWF0cml4KDEuMDg3MzkwNiwwLDAsMSwtNC40NzQxOTk5LDApIj4KICAgICAgPHBhdGgKICAgICAgICAgdHJhbnNmb3JtPSJ0cmFuc2xhdGUoMTEuNTg2ODg5LDUuMjkwODk5MykiCiAgICAgICAgIGQ9Ik0gNDcuMDI5MTQgNDcuMzY5OTMgQSA4LjUxOTc3MTYgOS4yMDEzNTMxIDAgMSAxICAyOS45ODk1OTcsNDcuMzY5OTMgQSA4LjUxOTc3MTYgOS4yMDEzNTMxIDAgMSAxICA0Ny4wMjkxNCA0Ny4zNjk5MyB6IgogICAgICAgICBzb2RpcG9kaTpyeT0iOS4yMDEzNTMxIgogICAgICAgICBzb2RpcG9kaTpyeD0iOC41MTk3NzE2IgogICAgICAgICBzb2RpcG9kaTpjeT0iNDcuMzY5OTMiCiAgICAgICAgIHNvZGlwb2RpOmN4PSIzOC41MDkzNjkiCiAgICAgICAgIGlkPSJwYXRoMjE2MCIKICAgICAgICAgc3R5bGU9ImZpbGw6bm9uZTtmaWxsLXJ1bGU6ZXZlbm9kZDtzdHJva2U6IzAwMDAwMDtzdHJva2Utd2lkdGg6MXB4O3N0cm9rZS1saW5lY2FwOmJ1dHQ7c3Ryb2tlLWxpbmVqb2luOm1pdGVyO3N0cm9rZS1vcGFjaXR5OjEiCiAgICAgICAgIHNvZGlwb2RpOnR5cGU9ImFyYyIgLz4KICAgIDwvYT4KICAgIDxwYXRoCiAgICAgICBzb2RpcG9kaTp0eXBlPSJhcmMiCiAgICAgICBzdHlsZT0iZmlsbDpub25lIgogICAgICAgaWQ9InBhdGgzMTM0IgogICAgICAgc29kaXBvZGk6Y3g9IjQzLjk2MjAyMSIKICAgICAgIHNvZGlwb2RpOmN5PSI0OC4zOTIzMDMiCiAgICAgICBzb2RpcG9kaTpyeD0iMy43NDg2OTk0IgogICAgICAgc29kaXBvZGk6cnk9IjAiCiAgICAgICBkPSJNIDQ3LjcxMDcyIDQ4LjM5MjMwMyBBIDMuNzQ4Njk5NCAwIDAgMSAxICA0MC4yMTMzMjEsNDguMzkyMzAzIEEgMy43NDg2OTk0IDAgMCAxIDEgIDQ3LjcxMDcyIDQ4LjM5MjMwMyB6IiAvPgogICAgPHBhdGgKICAgICAgIHN0eWxlPSJmaWxsOm5vbmU7ZmlsbC1ydWxlOmV2ZW5vZGQ7c3Ryb2tlOiMwMDAwMDA7c3Ryb2tlLXdpZHRoOjEuMjQzMTk2NDlweDtzdHJva2UtbGluZWNhcDpidXR0O3N0cm9rZS1saW5lam9pbjptaXRlcjtzdHJva2Utb3BhY2l0eToxIgogICAgICAgZD0iTSA1MCw2MS4zMzcwOSBDIDUwLDkxLjM2MzIxMSA1MCw5Mi4yNDc4MzggNTAsOTIuMjQ3ODM4IgogICAgICAgaWQ9InBhdGgzMTM2IiAvPgogICAgPHBhdGgKICAgICAgIHN0eWxlPSJmaWxsOm5vbmU7ZmlsbC1ydWxlOmV2ZW5vZGQ7c3Ryb2tlOiMwMDAwMDA7c3Ryb2tlLXdpZHRoOjFweDtzdHJva2UtbGluZWNhcDpidXR0O3N0cm9rZS1saW5lam9pbjptaXRlcjtzdHJva2Utb3BhY2l0eToxIgogICAgICAgZD0iTSA2OS43NjA2NjgsNzIuMzYyMTgzIEMgNjkuNzYwNjY4LDcyLjM2MjE4MyA2OS43NjA2NjgsNzIuMzYyMTgzIDUwLjIzOTMzMiw3Mi4zNjIxODMgQyAzMC4yMzkzMzIsNzIuMzYyMTgzIDMwLjIzOTMzMiw3Mi4zNjIxODMgMzAuMjM5MzMyLDcyLjM2MjE4MyBMIDMwLjIzOTMzMiw3Mi4zNjIxODMiCiAgICAgICBpZD0icGF0aDMxMzgiIC8+CiAgICA8cGF0aAogICAgICAgc3R5bGU9ImZpbGw6bm9uZTtmaWxsLXJ1bGU6ZXZlbm9kZDtzdHJva2U6IzAwMDAwMDtzdHJva2Utd2lkdGg6MXB4O3N0cm9rZS1saW5lY2FwOmJ1dHQ7c3Ryb2tlLWxpbmVqb2luOm1pdGVyO3N0cm9rZS1vcGFjaXR5OjEiCiAgICAgICBkPSJNIDMwLDExMS40NTY4NyBDIDMwLDExMS40NTY4NyAzMCwxMTEuNDU2ODcgNTAsOTIuMDEzNTMyIEMgNzAsMTExLjQ1Njg3IDcwLDExMS40NTY4NyA3MCwxMTEuNDU2ODciCiAgICAgICBpZD0icGF0aDMxNDAiIC8+CiAgPC9nPgo8L3N2Zz4K" parent="1" vertex="1">
          <mxGeometry x="-413" y="-260" width="60" height="100" as="geometry" />
        </mxCell>
        <mxCell id="0.3.0" value="Гость" style="text;html=1;spacing=0;align=center;fontFamily=dialog;fontSize=13;fontStyle=0;=center;fontColor=#000000;verticalAlign=bottom" parent="5" vertex="1">
          <mxGeometry x="14.6318359375" y="104" width="30.736328125" height="19.92626953125" as="geometry" />
        </mxCell>
        <mxCell id="HmuV78mh6Rb3Nnddwdob-38" value="&lt;font style=&quot;font-size: 16px;&quot;&gt;Веб-приложение QR-меню&lt;/font&gt;" style="text;html=1;spacing=0;align=center;fontFamily=dialog;fontSize=12;fontStyle=0;=center;fontColor=#000000;verticalAlign=center" parent="1" vertex="1">
          <mxGeometry x="200.0006640625001" y="-450.0005859375" width="151.638671875" height="18.701171875" as="geometry" />
        </mxCell>
        <mxCell id="_vYmIPRDSyXCgmwsRDD9-38" style="edgeStyle=orthogonalEdgeStyle;rounded=0;orthogonalLoop=1;jettySize=auto;html=1;exitX=1;exitY=0.5;exitDx=0;exitDy=0;entryX=0;entryY=0.5;entryDx=0;entryDy=0;endArrow=none;endFill=0;" edge="1" parent="1" source="HmuV78mh6Rb3Nnddwdob-50" target="4">
          <mxGeometry relative="1" as="geometry" />
        </mxCell>
        <mxCell id="HmuV78mh6Rb3Nnddwdob-50" value="Аунтефикация" style="graphMlID=n11;gradientDirection=east;shape=ellipse;fillColor=#ffffff;strokeColor=#000000;strokeWidth=1.0" parent="1" vertex="1">
          <mxGeometry x="570" y="-186.0025" width="180.5" height="66" as="geometry" />
        </mxCell>
        <mxCell id="_vYmIPRDSyXCgmwsRDD9-31" value="" style="edgeStyle=orthogonalEdgeStyle;rounded=0;orthogonalLoop=1;jettySize=auto;html=1;endArrow=none;endFill=0;exitX=0;exitY=0.5;exitDx=0;exitDy=0;dashed=1;startArrow=open;startFill=0;" edge="1" parent="1" source="HmuV78mh6Rb3Nnddwdob-51" target="_vYmIPRDSyXCgmwsRDD9-30">
          <mxGeometry relative="1" as="geometry" />
        </mxCell>
        <mxCell id="_vYmIPRDSyXCgmwsRDD9-37" style="edgeStyle=orthogonalEdgeStyle;rounded=0;orthogonalLoop=1;jettySize=auto;html=1;entryX=0;entryY=0.5;entryDx=0;entryDy=0;endArrow=none;endFill=0;" edge="1" parent="1" source="HmuV78mh6Rb3Nnddwdob-51" target="4">
          <mxGeometry relative="1" as="geometry" />
        </mxCell>
        <mxCell id="HmuV78mh6Rb3Nnddwdob-51" value="Управление категориями" style="graphMlID=n11;gradientDirection=east;shape=ellipse;fillColor=#ffffff;strokeColor=#000000;strokeWidth=1.0" parent="1" vertex="1">
          <mxGeometry x="570" y="-260" width="180" height="66" as="geometry" />
        </mxCell>
        <mxCell id="_vYmIPRDSyXCgmwsRDD9-39" style="edgeStyle=orthogonalEdgeStyle;rounded=0;orthogonalLoop=1;jettySize=auto;html=1;entryX=0;entryY=0.5;entryDx=0;entryDy=0;endArrow=none;endFill=0;" edge="1" parent="1" source="HmuV78mh6Rb3Nnddwdob-52" target="4">
          <mxGeometry relative="1" as="geometry" />
        </mxCell>
        <mxCell id="HmuV78mh6Rb3Nnddwdob-52" value="Управление блюдами" style="graphMlID=n11;gradientDirection=east;shape=ellipse;fillColor=#ffffff;strokeColor=#000000;strokeWidth=1.0" parent="1" vertex="1">
          <mxGeometry x="569.5" y="-94.0025" width="180.5" height="66" as="geometry" />
        </mxCell>
        <mxCell id="_vYmIPRDSyXCgmwsRDD9-40" style="edgeStyle=orthogonalEdgeStyle;rounded=0;orthogonalLoop=1;jettySize=auto;html=1;entryX=0;entryY=0.5;entryDx=0;entryDy=0;endArrow=none;endFill=0;" edge="1" parent="1" source="HmuV78mh6Rb3Nnddwdob-53" target="4">
          <mxGeometry relative="1" as="geometry" />
        </mxCell>
        <mxCell id="HmuV78mh6Rb3Nnddwdob-53" value="Управление рестораном" style="graphMlID=n11;gradientDirection=east;shape=ellipse;fillColor=#ffffff;strokeColor=#000000;strokeWidth=1.0" parent="1" vertex="1">
          <mxGeometry x="570" y="129.9975" width="180.5" height="66" as="geometry" />
        </mxCell>
        <mxCell id="HmuV78mh6Rb3Nnddwdob-54" value="Просмотр меню" style="graphMlID=n11;gradientDirection=east;shape=ellipse;fillColor=#ffffff;strokeColor=#000000;strokeWidth=1.0" parent="1" vertex="1">
          <mxGeometry x="-210" y="-243.0025" width="180.5" height="66" as="geometry" />
        </mxCell>
        <mxCell id="_vYmIPRDSyXCgmwsRDD9-18" style="edgeStyle=orthogonalEdgeStyle;rounded=0;orthogonalLoop=1;jettySize=auto;html=1;entryX=1;entryY=0.5;entryDx=0;entryDy=0;endArrow=none;endFill=0;" edge="1" parent="1" source="_vYmIPRDSyXCgmwsRDD9-16" target="5">
          <mxGeometry relative="1" as="geometry" />
        </mxCell>
        <mxCell id="_vYmIPRDSyXCgmwsRDD9-16" value="Поиск блюд" style="graphMlID=n11;gradientDirection=east;shape=ellipse;fillColor=#ffffff;strokeColor=#000000;strokeWidth=1.0" vertex="1" parent="1">
          <mxGeometry x="-210" y="-326.0025" width="180.5" height="66" as="geometry" />
        </mxCell>
        <mxCell id="_vYmIPRDSyXCgmwsRDD9-21" style="edgeStyle=orthogonalEdgeStyle;rounded=0;orthogonalLoop=1;jettySize=auto;html=1;entryX=1;entryY=0.5;entryDx=0;entryDy=0;endArrow=none;endFill=0;" edge="1" parent="1" source="_vYmIPRDSyXCgmwsRDD9-19" target="5">
          <mxGeometry relative="1" as="geometry" />
        </mxCell>
        <mxCell id="_vYmIPRDSyXCgmwsRDD9-19" value="Сортировка блюд" style="graphMlID=n11;gradientDirection=east;shape=ellipse;fillColor=#ffffff;strokeColor=#000000;strokeWidth=1.0" vertex="1" parent="1">
          <mxGeometry x="-210" y="-160.0025" width="180.5" height="66" as="geometry" />
        </mxCell>
        <mxCell id="_vYmIPRDSyXCgmwsRDD9-27" style="edgeStyle=orthogonalEdgeStyle;rounded=0;orthogonalLoop=1;jettySize=auto;html=1;entryX=1;entryY=0.5;entryDx=0;entryDy=0;dashed=1;endArrow=open;endFill=0;" edge="1" parent="1" source="_vYmIPRDSyXCgmwsRDD9-22" target="_vYmIPRDSyXCgmwsRDD9-19">
          <mxGeometry relative="1" as="geometry" />
        </mxCell>
        <mxCell id="_vYmIPRDSyXCgmwsRDD9-22" value="Сортировка по ценам" style="graphMlID=n11;gradientDirection=east;shape=ellipse;fillColor=#ffffff;strokeColor=#000000;strokeWidth=1.0" vertex="1" parent="1">
          <mxGeometry x="80" y="-120" width="180.5" height="62" as="geometry" />
        </mxCell>
        <mxCell id="_vYmIPRDSyXCgmwsRDD9-28" style="edgeStyle=orthogonalEdgeStyle;rounded=0;orthogonalLoop=1;jettySize=auto;html=1;exitX=0;exitY=0.5;exitDx=0;exitDy=0;entryX=1;entryY=0.5;entryDx=0;entryDy=0;dashed=1;endArrow=open;endFill=0;" edge="1" parent="1" source="_vYmIPRDSyXCgmwsRDD9-24" target="_vYmIPRDSyXCgmwsRDD9-19">
          <mxGeometry relative="1" as="geometry" />
        </mxCell>
        <mxCell id="_vYmIPRDSyXCgmwsRDD9-24" value="Сортировка по алфавиту" style="graphMlID=n11;gradientDirection=east;shape=ellipse;fillColor=#ffffff;strokeColor=#000000;strokeWidth=1.0" vertex="1" parent="1">
          <mxGeometry x="80" y="-196.0025" width="180.5" height="66" as="geometry" />
        </mxCell>
        <mxCell id="_vYmIPRDSyXCgmwsRDD9-29" value="&amp;lt;&amp;lt;extend&amp;gt;&amp;gt;" style="text;html=1;align=center;verticalAlign=middle;resizable=0;points=[];autosize=1;strokeColor=none;fillColor=none;" vertex="1" parent="1">
          <mxGeometry x="10" y="-198" width="82" height="26" as="geometry" />
        </mxCell>
        <mxCell id="_vYmIPRDSyXCgmwsRDD9-30" value="Создание категории" style="graphMlID=n11;gradientDirection=east;shape=ellipse;fillColor=#ffffff;strokeColor=#000000;strokeWidth=1.0" vertex="1" parent="1">
          <mxGeometry x="286.25" y="-252.0025" width="180.5" height="66" as="geometry" />
        </mxCell>
        <mxCell id="_vYmIPRDSyXCgmwsRDD9-36" style="edgeStyle=orthogonalEdgeStyle;rounded=0;orthogonalLoop=1;jettySize=auto;html=1;entryX=0;entryY=0.5;entryDx=0;entryDy=0;dashed=1;endArrow=open;endFill=0;" edge="1" parent="1" source="_vYmIPRDSyXCgmwsRDD9-34" target="HmuV78mh6Rb3Nnddwdob-51">
          <mxGeometry relative="1" as="geometry" />
        </mxCell>
        <mxCell id="_vYmIPRDSyXCgmwsRDD9-34" value="Удаление категории" style="graphMlID=n11;gradientDirection=east;shape=ellipse;fillColor=#ffffff;strokeColor=#000000;strokeWidth=1.0" vertex="1" parent="1">
          <mxGeometry x="286.25" y="-326.0025" width="180.5" height="66" as="geometry" />
        </mxCell>
        <mxCell id="_vYmIPRDSyXCgmwsRDD9-43" style="edgeStyle=orthogonalEdgeStyle;rounded=0;orthogonalLoop=1;jettySize=auto;html=1;entryX=0;entryY=0.5;entryDx=0;entryDy=0;dashed=1;endArrow=none;endFill=0;" edge="1" parent="1" source="_vYmIPRDSyXCgmwsRDD9-41" target="HmuV78mh6Rb3Nnddwdob-51">
          <mxGeometry relative="1" as="geometry" />
        </mxCell>
        <mxCell id="_vYmIPRDSyXCgmwsRDD9-41" value="Редактирование категории" style="graphMlID=n11;gradientDirection=east;shape=ellipse;fillColor=#ffffff;strokeColor=#000000;strokeWidth=1.0" vertex="1" parent="1">
          <mxGeometry x="286.25" y="-176.0025" width="180.5" height="66" as="geometry" />
        </mxCell>
        <mxCell id="_vYmIPRDSyXCgmwsRDD9-44" value="&amp;lt;&amp;lt;extend&amp;gt;&amp;gt;" style="text;html=1;align=center;verticalAlign=middle;resizable=0;points=[];autosize=1;strokeColor=none;fillColor=none;" vertex="1" parent="1">
          <mxGeometry x="20" y="-130" width="82" height="26" as="geometry" />
        </mxCell>
        <mxCell id="_vYmIPRDSyXCgmwsRDD9-45" value="&amp;lt;&amp;lt;extend&amp;gt;&amp;gt;" style="text;html=1;align=center;verticalAlign=middle;resizable=0;points=[];autosize=1;strokeColor=none;fillColor=none;" vertex="1" parent="1">
          <mxGeometry x="448" y="-330" width="82" height="26" as="geometry" />
        </mxCell>
        <mxCell id="_vYmIPRDSyXCgmwsRDD9-46" value="&amp;lt;&amp;lt;extend&amp;gt;&amp;gt;" style="text;html=1;align=center;verticalAlign=middle;resizable=0;points=[];autosize=1;strokeColor=none;fillColor=none;" vertex="1" parent="1">
          <mxGeometry x="444" y="-186" width="82" height="26" as="geometry" />
        </mxCell>
        <mxCell id="_vYmIPRDSyXCgmwsRDD9-47" value="&amp;lt;&amp;lt;extend&amp;gt;&amp;gt;" style="text;html=1;align=center;verticalAlign=middle;resizable=0;points=[];autosize=1;strokeColor=none;fillColor=none;" vertex="1" parent="1">
          <mxGeometry x="444" y="-260" width="82" height="26" as="geometry" />
        </mxCell>
        <mxCell id="_vYmIPRDSyXCgmwsRDD9-56" style="edgeStyle=orthogonalEdgeStyle;rounded=0;orthogonalLoop=1;jettySize=auto;html=1;entryX=0;entryY=0.5;entryDx=0;entryDy=0;endArrow=none;endFill=0;dashed=1;" edge="1" parent="1" source="_vYmIPRDSyXCgmwsRDD9-49" target="HmuV78mh6Rb3Nnddwdob-52">
          <mxGeometry relative="1" as="geometry" />
        </mxCell>
        <mxCell id="_vYmIPRDSyXCgmwsRDD9-49" value="Создание блюда" style="graphMlID=n11;gradientDirection=east;shape=ellipse;fillColor=#ffffff;strokeColor=#000000;strokeWidth=1.0" vertex="1" parent="1">
          <mxGeometry x="286.25" y="-94.0025" width="180.5" height="66" as="geometry" />
        </mxCell>
        <mxCell id="_vYmIPRDSyXCgmwsRDD9-55" style="edgeStyle=orthogonalEdgeStyle;rounded=0;orthogonalLoop=1;jettySize=auto;html=1;exitX=1;exitY=0.5;exitDx=0;exitDy=0;entryX=0;entryY=0.5;entryDx=0;entryDy=0;dashed=1;endArrow=none;endFill=0;" edge="1" parent="1" source="_vYmIPRDSyXCgmwsRDD9-51" target="HmuV78mh6Rb3Nnddwdob-52">
          <mxGeometry relative="1" as="geometry" />
        </mxCell>
        <mxCell id="_vYmIPRDSyXCgmwsRDD9-51" value="Удаление блюда" style="graphMlID=n11;gradientDirection=east;shape=ellipse;fillColor=#ffffff;strokeColor=#000000;strokeWidth=1.0" vertex="1" parent="1">
          <mxGeometry x="286.25" y="-20.002499999999998" width="180.5" height="66" as="geometry" />
        </mxCell>
        <mxCell id="_vYmIPRDSyXCgmwsRDD9-58" style="edgeStyle=orthogonalEdgeStyle;rounded=0;orthogonalLoop=1;jettySize=auto;html=1;exitX=1;exitY=0.5;exitDx=0;exitDy=0;entryX=0;entryY=0.5;entryDx=0;entryDy=0;dashed=1;endArrow=open;endFill=0;" edge="1" parent="1" source="_vYmIPRDSyXCgmwsRDD9-53" target="HmuV78mh6Rb3Nnddwdob-52">
          <mxGeometry relative="1" as="geometry" />
        </mxCell>
        <mxCell id="_vYmIPRDSyXCgmwsRDD9-53" value="Редактирование блюда" style="graphMlID=n11;gradientDirection=east;shape=ellipse;fillColor=#ffffff;strokeColor=#000000;strokeWidth=1.0" vertex="1" parent="1">
          <mxGeometry x="286.25" y="49.9975" width="180.5" height="66" as="geometry" />
        </mxCell>
        <mxCell id="_vYmIPRDSyXCgmwsRDD9-59" value="&amp;lt;&amp;lt;extend&amp;gt;&amp;gt;" style="text;html=1;align=center;verticalAlign=middle;resizable=0;points=[];autosize=1;strokeColor=none;fillColor=none;" vertex="1" parent="1">
          <mxGeometry x="454" y="-98" width="82" height="26" as="geometry" />
        </mxCell>
        <mxCell id="_vYmIPRDSyXCgmwsRDD9-60" value="&amp;lt;&amp;lt;extend&amp;gt;&amp;gt;" style="text;html=1;align=center;verticalAlign=middle;resizable=0;points=[];autosize=1;strokeColor=none;fillColor=none;" vertex="1" parent="1">
          <mxGeometry x="440" y="-28" width="82" height="26" as="geometry" />
        </mxCell>
        <mxCell id="_vYmIPRDSyXCgmwsRDD9-61" value="&amp;lt;&amp;lt;extend&amp;gt;&amp;gt;" style="text;html=1;align=center;verticalAlign=middle;resizable=0;points=[];autosize=1;strokeColor=none;fillColor=none;" vertex="1" parent="1">
          <mxGeometry x="440" y="40" width="82" height="26" as="geometry" />
        </mxCell>
        <mxCell id="_vYmIPRDSyXCgmwsRDD9-66" style="edgeStyle=orthogonalEdgeStyle;rounded=0;orthogonalLoop=1;jettySize=auto;html=1;entryX=0;entryY=0.5;entryDx=0;entryDy=0;dashed=1;endArrow=open;endFill=0;" edge="1" parent="1" source="_vYmIPRDSyXCgmwsRDD9-62" target="HmuV78mh6Rb3Nnddwdob-53">
          <mxGeometry relative="1" as="geometry" />
        </mxCell>
        <mxCell id="_vYmIPRDSyXCgmwsRDD9-62" value="Создание ресторана" style="graphMlID=n11;gradientDirection=east;shape=ellipse;fillColor=#ffffff;strokeColor=#000000;strokeWidth=1.0" vertex="1" parent="1">
          <mxGeometry x="286.25" y="129.9975" width="180.5" height="66" as="geometry" />
        </mxCell>
        <mxCell id="_vYmIPRDSyXCgmwsRDD9-69" style="edgeStyle=orthogonalEdgeStyle;rounded=0;orthogonalLoop=1;jettySize=auto;html=1;exitX=1;exitY=0.5;exitDx=0;exitDy=0;entryX=0;entryY=0.5;entryDx=0;entryDy=0;dashed=1;endArrow=none;endFill=0;" edge="1" parent="1" source="_vYmIPRDSyXCgmwsRDD9-64" target="HmuV78mh6Rb3Nnddwdob-53">
          <mxGeometry relative="1" as="geometry" />
        </mxCell>
        <mxCell id="_vYmIPRDSyXCgmwsRDD9-64" value="Редактирование ресторана" style="graphMlID=n11;gradientDirection=east;shape=ellipse;fillColor=#ffffff;strokeColor=#000000;strokeWidth=1.0" vertex="1" parent="1">
          <mxGeometry x="286.25" y="209.9975" width="180.5" height="66" as="geometry" />
        </mxCell>
        <mxCell id="_vYmIPRDSyXCgmwsRDD9-70" value="&amp;lt;&amp;lt;extend&amp;gt;&amp;gt;" style="text;html=1;align=center;verticalAlign=middle;resizable=0;points=[];autosize=1;strokeColor=none;fillColor=none;" vertex="1" parent="1">
          <mxGeometry x="454" y="130" width="82" height="26" as="geometry" />
        </mxCell>
        <mxCell id="_vYmIPRDSyXCgmwsRDD9-71" value="&amp;lt;&amp;lt;extend&amp;gt;&amp;gt;" style="text;html=1;align=center;verticalAlign=middle;resizable=0;points=[];autosize=1;strokeColor=none;fillColor=none;" vertex="1" parent="1">
          <mxGeometry x="440" y="200" width="82" height="26" as="geometry" />
        </mxCell>
        <mxCell id="_vYmIPRDSyXCgmwsRDD9-74" style="edgeStyle=orthogonalEdgeStyle;rounded=0;orthogonalLoop=1;jettySize=auto;html=1;entryX=0;entryY=0.5;entryDx=0;entryDy=0;endArrow=none;endFill=0;" edge="1" parent="1" source="_vYmIPRDSyXCgmwsRDD9-72" target="4">
          <mxGeometry relative="1" as="geometry" />
        </mxCell>
        <mxCell id="_vYmIPRDSyXCgmwsRDD9-72" value="Управление QR-кодом" style="graphMlID=n11;gradientDirection=east;shape=ellipse;fillColor=#ffffff;strokeColor=#000000;strokeWidth=1.0" vertex="1" parent="1">
          <mxGeometry x="569.5" y="309.9975" width="180.5" height="66" as="geometry" />
        </mxCell>
        <mxCell id="_vYmIPRDSyXCgmwsRDD9-80" style="edgeStyle=orthogonalEdgeStyle;rounded=0;orthogonalLoop=1;jettySize=auto;html=1;exitX=1;exitY=0.5;exitDx=0;exitDy=0;entryX=0;entryY=0.5;entryDx=0;entryDy=0;endArrow=open;endFill=0;dashed=1;" edge="1" parent="1" source="_vYmIPRDSyXCgmwsRDD9-75" target="_vYmIPRDSyXCgmwsRDD9-72">
          <mxGeometry relative="1" as="geometry" />
        </mxCell>
        <mxCell id="_vYmIPRDSyXCgmwsRDD9-75" value="Генерация QR-кода" style="graphMlID=n11;gradientDirection=east;shape=ellipse;fillColor=#ffffff;strokeColor=#000000;strokeWidth=1.0" vertex="1" parent="1">
          <mxGeometry x="286.25" y="309.9975" width="180.5" height="66" as="geometry" />
        </mxCell>
        <mxCell id="_vYmIPRDSyXCgmwsRDD9-81" style="edgeStyle=orthogonalEdgeStyle;rounded=0;orthogonalLoop=1;jettySize=auto;html=1;entryX=0;entryY=0.5;entryDx=0;entryDy=0;dashed=1;endArrow=none;endFill=0;" edge="1" parent="1" source="_vYmIPRDSyXCgmwsRDD9-77" target="_vYmIPRDSyXCgmwsRDD9-72">
          <mxGeometry relative="1" as="geometry" />
        </mxCell>
        <mxCell id="_vYmIPRDSyXCgmwsRDD9-77" value="Загрузка QR-кода на диск" style="graphMlID=n11;gradientDirection=east;shape=ellipse;fillColor=#ffffff;strokeColor=#000000;strokeWidth=1.0" vertex="1" parent="1">
          <mxGeometry x="286.25" y="389.9975" width="180.5" height="66" as="geometry" />
        </mxCell>
        <mxCell id="_vYmIPRDSyXCgmwsRDD9-82" value="&amp;lt;&amp;lt;extend&amp;gt;&amp;gt;" style="text;html=1;align=center;verticalAlign=middle;resizable=0;points=[];autosize=1;strokeColor=none;fillColor=none;" vertex="1" parent="1">
          <mxGeometry x="448" y="300" width="82" height="26" as="geometry" />
        </mxCell>
        <mxCell id="_vYmIPRDSyXCgmwsRDD9-83" value="&amp;lt;&amp;lt;extend&amp;gt;&amp;gt;" style="text;html=1;align=center;verticalAlign=middle;resizable=0;points=[];autosize=1;strokeColor=none;fillColor=none;" vertex="1" parent="1">
          <mxGeometry x="440" y="380" width="82" height="26" as="geometry" />
        </mxCell>
      </root>
    </mxGraphModel>
  </diagram>
</mxfile>
